<svg width="99" height="21" viewBox="0 0 99 21" fill="none" xmlns="http://www.w3.org/2000/svg">
<path d="M31.6821 6.0726C28.9411 6.0726 26.702 8.10924 26.702 10.9192C26.702 13.7065 28.9411 15.7645 31.6821 15.7645C34.4289 15.7645 36.6681 13.7065 36.6681 10.9192C36.6681 8.10924 34.4289 6.0726 31.6821 6.0726ZM31.6821 13.856C30.1781 13.856 28.8842 12.644 28.8842 10.9192C28.8842 9.17172 30.1781 7.98106 31.6821 7.98106C33.1861 7.98106 34.4858 9.17172 34.4858 10.9192C34.4858 12.644 33.1861 13.856 31.6821 13.856ZM20.816 6.0726C18.0692 6.0726 15.8358 8.10924 15.8358 10.9192C15.8358 13.7065 18.0692 15.7645 20.816 15.7645C23.5613 15.7645 25.7961 13.7065 25.7961 10.9192C25.7961 8.10924 23.5613 6.0726 20.816 6.0726ZM20.816 13.856C19.3105 13.856 18.0123 12.644 18.0123 10.9192C18.0123 9.17172 19.3105 7.98106 20.816 7.98106C22.3199 7.98106 23.6138 9.17172 23.6138 10.9192C23.6138 12.644 22.3199 13.856 20.816 13.856ZM7.88571 7.55807V9.6175H12.9227C12.7754 10.7683 12.3815 11.6143 11.7776 12.2039C11.0424 12.916 9.89731 13.7065 7.88571 13.7065C4.78589 13.7065 2.35855 11.2639 2.35855 8.23742C2.35855 5.21094 4.78589 2.76839 7.88571 2.76839C9.5618 2.76839 10.7813 3.40787 11.6813 4.23677L13.1678 2.78548C11.9089 1.61192 10.2343 0.710381 7.88571 0.710381C3.63495 0.710381 0.0625 4.08723 0.0625 8.23742C0.0625 12.3876 3.63495 15.7645 7.88571 15.7645C10.1832 15.7645 11.9089 15.0296 13.2655 13.6509C14.6557 12.2936 15.089 10.3852 15.089 8.84414C15.089 8.3656 15.0481 7.92552 14.9752 7.55807H7.88571ZM60.7591 9.15463C60.3492 8.07079 59.0845 6.0726 56.5084 6.0726C53.9556 6.0726 51.8302 8.03661 51.8302 10.9192C51.8302 13.6338 53.9337 15.7645 56.7534 15.7645C59.0334 15.7645 60.3492 14.4072 60.8904 13.6167L59.1983 12.5158C58.6337 13.3219 57.865 13.856 56.7534 13.856C55.6492 13.856 54.8571 13.3618 54.3494 12.3876L60.9881 9.7058L60.7591 9.15463ZM53.9906 10.7683C53.9337 8.89969 55.477 7.94261 56.5828 7.94261C57.4492 7.94261 58.1844 8.3656 58.4295 8.9709L53.9906 10.7683ZM48.5947 15.4696H50.777V1.22738H48.5947V15.4696ZM45.0208 7.15216H44.9479C44.4577 6.58532 43.5227 6.0726 42.3382 6.0726C39.8525 6.0726 37.5798 8.20324 37.5798 10.9349C37.5798 13.6509 39.8525 15.7645 42.3382 15.7645C43.5227 15.7645 44.4577 15.2475 44.9479 14.6635H45.0208V15.3586C45.0208 17.2115 44.007 18.207 42.3717 18.207C41.0384 18.207 40.2113 17.267 39.87 16.4766L37.9722 17.2499C38.5192 18.5346 39.9677 20.1155 42.3717 20.1155C44.9304 20.1155 47.0893 18.6457 47.0893 15.0694V6.36741H45.0208V7.15216ZM42.5249 13.856C41.0209 13.856 39.762 12.6269 39.762 10.9349C39.762 9.22726 41.0209 7.98106 42.5249 7.98106C44.007 7.98106 45.1754 9.22726 45.1754 10.9349C45.1754 12.6269 44.007 13.856 42.5249 13.856ZM70.9761 1.22738H65.7567V15.4696H67.9332V10.0733H70.9761C73.3932 10.0733 75.7637 8.3656 75.7637 5.6496C75.7637 2.93502 73.3874 1.22738 70.9761 1.22738ZM71.033 8.09215H67.9332V3.20848H71.033C72.658 3.20848 73.5858 4.52589 73.5858 5.6496C73.5858 6.75195 72.658 8.09215 71.033 8.09215ZM84.487 6.04554C82.9144 6.04554 81.2792 6.72347 80.6067 8.22603L82.5381 9.01648C82.9538 8.22603 83.7182 7.96967 84.5263 7.96967C85.6554 7.96967 86.8005 8.63193 86.818 9.80123V9.95077C86.4241 9.72859 85.581 9.39959 84.5438 9.39959C82.4637 9.39959 80.3441 10.5176 80.3441 12.6041C80.3441 14.5126 82.0479 15.7417 83.9633 15.7417C85.4278 15.7417 86.236 15.0965 86.7436 14.3459H86.818V15.4469H88.9201V9.98353C88.9201 7.45837 86.9887 6.04554 84.487 6.04554ZM84.2244 13.8503C83.5125 13.8503 82.5206 13.5056 82.5206 12.644C82.5206 11.5416 83.7576 11.1186 84.8283 11.1186C85.7867 11.1186 86.236 11.3251 86.818 11.5972C86.6473 12.916 85.4847 13.8503 84.2244 13.8503ZM96.5784 6.35744L94.0767 12.5315H94.0023L91.4159 6.35744H89.0688L92.9549 14.9854L90.7376 19.7865H93.0118L98.9999 6.35744H96.5784ZM76.9599 15.4696H79.1421V1.22738H76.9599V15.4696Z" fill="white"/>
</svg>
