<svg width="46" height="8" viewBox="0 0 46 8" fill="none" xmlns="http://www.w3.org/2000/svg">
<path d="M7.50455 3.95931C7.50455 4.91069 7.21281 5.67265 6.63807 6.24092C5.97726 6.91458 5.1166 7.25354 4.06194 7.25354C3.05395 7.25354 2.19329 6.90888 1.48726 6.22952C0.779769 5.5402 0.426758 4.69421 0.426758 3.68158C0.426758 2.66896 0.779769 1.82297 1.48726 1.13934C2.19329 0.454283 3.05395 0.109619 4.06194 0.109619C4.56374 0.109619 5.0422 0.210739 5.49879 0.398737C5.95391 0.58816 6.32443 0.84452 6.59284 1.1607L5.98309 1.76172C5.51484 1.22194 4.87737 0.955611 4.06194 0.955611C3.32673 0.955611 2.68926 1.20627 2.14807 1.71187C1.61271 2.2189 1.3443 2.87547 1.3443 3.68158C1.3443 4.48769 1.61271 5.14996 2.14807 5.65698C2.68926 6.15689 3.32673 6.41325 4.06194 6.41325C4.84236 6.41325 5.49879 6.15689 6.01665 5.65129C6.35799 5.31659 6.552 4.85514 6.60306 4.26551H4.06194V3.44231H7.45204C7.49288 3.62034 7.50455 3.79267 7.50455 3.95931Z" fill="white"/>
<path d="M12.8829 1.10515H9.69848V3.26997H12.5693V4.09317H9.69848V6.258H12.8829V7.09687H8.79698V0.266278H12.8829V1.10515Z" fill="white"/>
<path d="M16.6785 7.09687H15.777V1.10515H13.8238V0.266278H18.6332V1.10515H16.6785V7.09687Z" fill="white"/>
<path d="M22.1138 7.09687V0.266278H23.0138V7.09687H22.1138Z" fill="white"/>
<path d="M27.0035 7.09687H26.1093V1.10515H24.1487V0.266278H28.964V1.10515H27.0035V7.09687Z" fill="white"/>
<path d="M38.0695 6.21813C37.3795 6.90888 36.5247 7.25354 35.505 7.25354C34.4795 7.25354 33.6247 6.90888 32.9347 6.21813C32.2462 5.5288 31.9034 4.68281 31.9034 3.68158C31.9034 2.68035 32.2462 1.83436 32.9347 1.14503C33.6247 0.454282 34.4795 0.109619 35.505 0.109619C36.5189 0.109619 37.3737 0.454282 38.0637 1.15073C38.758 1.84575 39.1008 2.68605 39.1008 3.68158C39.1008 4.68281 38.758 5.5288 38.0695 6.21813ZM33.6014 5.64559C34.1207 6.15689 34.7523 6.41325 35.505 6.41325C36.2519 6.41325 36.8894 6.15689 37.4029 5.64559C37.9207 5.13429 38.1833 4.47773 38.1833 3.68158C38.1833 2.88544 37.9207 2.22887 37.4029 1.71757C36.8894 1.20628 36.2519 0.949913 35.505 0.949913C34.7523 0.949913 34.1207 1.20628 33.6014 1.71757C33.0835 2.22887 32.821 2.88544 32.821 3.68158C32.821 4.47773 33.0835 5.13429 33.6014 5.64559Z" fill="white"/>
<path d="M40.3655 7.09687V0.266278H41.4596L44.8614 5.57865H44.9008L44.8614 4.26551V0.266278H45.7614V7.09687H44.822L41.2597 1.52245H41.2204L41.2597 2.84128V7.09687H40.3655Z" fill="white"/>
</svg>
